# xmcd
#
# Track frame offsets: 
#        150
#        9132
#        21132
#        33857
#        48675
#        58050
#        75862
#        88360
#        99087
#        110487
#        124350
#        131625
#        143025
#        156225
#        168887
#
# Disc length: 2375 seconds
#
# Revision: 0
# Processed by: cddbd v1.4PL0 Copyright (c) Steve Scherf et al.
# Submitted via: ExactAudioCopy v0.90a11
#
DISCID=b809450f
DTITLE=The Nashville Bluegrass Band - The Nashville Bluegrass Band
DYEAR=1900
DGENRE=
TTITLE0=Up Above My Head
TTITLE1=Monroebillia
TTITLE2=My Native Home
TTITLE3=Doghouse Blues
TTITLE4=Two Wings
TTITLE5=Brand New Tennessee Waltz
TTITLE6=Little Maggie
TTITLE7=Old Timey Risin' Damp
TTITLE8=Old Devil's Dream
TTITLE9=The Train Carryin' Jimmie Rodgers Home
TTITLE10=Angeline the Baker
TTITLE11=Prodigal Son
TTITLE12=No One But My Darlin
TTITLE13=All I Want is You
TTITLE14=Idle Time
EXTD=
EXTT0=
EXTT1=
EXTT2=
EXTT3=
EXTT4=
EXTT5=
EXTT6=
EXTT7=
EXTT8=
EXTT9=
EXTT10=
EXTT11=
EXTT12=
EXTT13=
EXTT14=
PLAYORDER=
